<svg width="1440" height="300" viewBox="0 0 1440 300" fill="none" xmlns="http://www.w3.org/2000/svg" opacity="1">
<path fill-rule="evenodd" clip-rule="evenodd" d="M1379 372L1396.92 293L1450 352.695L1379 372Z" stroke="#5a5599" stroke-width="2" stroke-linejoin="round"/>
<path fill-rule="evenodd" clip-rule="evenodd" d="M1172.23 15L1120 28.1478L1133.77 78L1186 64.8522L1172.23 15Z" stroke="#5a5599" stroke-width="2" stroke-linejoin="round"/>
<path fill-rule="evenodd" clip-rule="evenodd" d="M1290 125C1303.8 125 1315 114.255 1315 101C1315 87.7454 1303.8 77 1290 77C1276.2 77 1265 87.7454 1265 101C1265 114.255 1276.2 125 1290 125Z" stroke="#5a5599" stroke-width="2" stroke-linejoin="round"/>
<path d="M1079.62 131C1089.44 145.086 1085.43 164.418 1070.73 173.837C1056.02 183.256 1035.83 179.418 1026 165.332" stroke="#5a5599" stroke-width="2" stroke-linejoin="round"/>
<path d="M1228 55L1269 13" stroke="#5a5599" stroke-width="2" stroke-linejoin="round"/>
<path d="M974 58L993 41" stroke="#5a5599" stroke-width="2" stroke-linejoin="round"/>
<path d="M1362.03 58C1369.18 71.9936 1352.68 79.9677 1359.85 93.9731C1367.01 107.967 1383.53 99.9938 1390.68 114C1397.84 127.994 1381.34 135.967 1388.51 149.974C1395.67 163.967 1412.18 155.994 1419.34 170C1426.5 184.006 1409.99 191.979 1417.16 205.973C1424.34 219.966 1440.83 211.993 1448 226" stroke="#5a5599" stroke-width="2" stroke-linejoin="round"/>
<path d="M1109 353L1129.36 336.204L1112.92 315.812L1133.27 299.016L1116.82 278.612L1137.19 261.816L1120.73 241.413L1141.09 224.616L1124.65 204.213L1145 187.415L1128.56 167" stroke="#5a5599" stroke-width="2" stroke-linejoin="round"/>
<path fill-rule="evenodd" clip-rule="evenodd" d="M1277 219.305L1197 195L1224.4 270L1277 219.305Z" stroke="#5a5599" stroke-width="2" stroke-linejoin="round"/>
<path fill-rule="evenodd" clip-rule="evenodd" d="M1424.63 21L1415 71.6931L1467.37 81L1477 30.3081L1424.63 21Z" stroke="#5a5599" stroke-width="2" stroke-linejoin="round"/>
<path fill-rule="evenodd" clip-rule="evenodd" d="M1291 351C1308.67 351 1323 337.121 1323 320.001C1323 302.879 1308.67 289 1291 289C1273.33 289 1259 302.879 1259 320.001C1259 337.121 1273.33 351 1291 351Z" stroke="#5a5599" stroke-width="2" stroke-linejoin="round"/>
<path d="M977 221L1024 256" stroke="#5a5599" stroke-width="2" stroke-linejoin="round"/>
<path d="M959 -39L1003 0" stroke="#5a5599" stroke-width="2" stroke-linejoin="round"/>
<path d="M1326 163L1346.5 177.024L1330.75 195.987L1351.24 210.024L1335.49 228.987L1356 243.024L1340.24 262" stroke="#5a5599" stroke-width="2" stroke-linejoin="round"/>
<path d="M931 389C944.165 379.997 933.561 365.328 946.728 356.337C959.893 347.334 970.498 362.003 983.663 353.012C996.829 344.009 986.224 329.34 999.39 320.337C1012.56 311.333 1023.16 326.002 1036.33 317.013C1049.49 308.009 1038.89 293.339 1052.05 284.337C1065.22 275.334 1075.83 290.003 1089 281" stroke="#5a5599" stroke-width="2" stroke-linejoin="round"/>
<path d="M1070 54L1066.69 79.602L1040.01 77.5974L1036.7 103.198L1010.01 101.194L1006.7 126.795L980.018 124.79L976.706 150.391L950.016 148.399L946.703 174L920 171.995" stroke="#5a5599" stroke-width="2" stroke-linejoin="round"/>
<path d="M1332.6 -57C1328.27 -44.2451 1345.62 -38.6482 1341.3 -25.9063C1336.97 -13.1514 1319.62 -18.7614 1315.31 -6.00649C1310.98 6.74838 1328.33 12.3453 1324.01 25.1002C1319.69 37.8551 1302.33 32.2451 1298 45" stroke="#5a5599" stroke-width="2" stroke-linejoin="round"/>
<path d="M1157 132.071L1208 132.929" stroke="#5a5599" stroke-width="2" stroke-linejoin="round"/>
<path d="M1182.05 157L1182.94 107" stroke="#5a5599" stroke-width="2" stroke-linejoin="round"/>
<path fill-rule="evenodd" clip-rule="evenodd" d="M1396.51 254C1400.09 254 1403 251.314 1403 248C1403 244.686 1400.09 242 1396.51 242C1392.91 242 1390 244.686 1390 248C1390 251.314 1392.91 254 1396.51 254Z" stroke="#5a5599" stroke-width="2" stroke-linejoin="round"/>
<path fill-rule="evenodd" clip-rule="evenodd" d="M1179.49 276C1183.09 276 1186 273.314 1186 270C1186 266.686 1183.09 264 1179.49 264C1175.91 264 1173 266.686 1173 270C1173 273.314 1175.91 276 1179.49 276Z" stroke="#5a5599" stroke-width="2" stroke-linejoin="round"/>
<path fill-rule="evenodd" clip-rule="evenodd" d="M1249.5 169C1253.09 169 1256 166.314 1256 163C1256 159.686 1253.09 157 1249.5 157C1245.91 157 1243 159.686 1243 163C1243 166.314 1245.91 169 1249.5 169Z" stroke="#5a5599" stroke-width="2" stroke-linejoin="round"/>
<path fill-rule="evenodd" clip-rule="evenodd" d="M1069.5 226C1073.09 226 1076 223.314 1076 220C1076 216.686 1073.09 214 1069.5 214C1065.91 214 1063 216.686 1063 220C1063 223.314 1065.91 226 1069.5 226Z" stroke="#5a5599" stroke-width="2" stroke-linejoin="round"/>
<path fill-rule="evenodd" clip-rule="evenodd" d="M1048.5 17C1052.1 17 1055 14.314 1055 11C1055 7.68596 1052.1 5 1048.5 5C1044.91 5 1042 7.68596 1042 11C1042 14.314 1044.91 17 1048.5 17Z" stroke="#5a5599" stroke-width="2" stroke-linejoin="round"/>
<path d="M965 275.967L907 275L940.149 320" stroke="#5a5599" stroke-width="2" stroke-linejoin="round"/>
<path fill-rule="evenodd" clip-rule="evenodd" d="M1379 372L1396.92 293L1450 352.695L1379 372Z" stroke="#5a5599" stroke-width="2" stroke-linejoin="round"/>
<path d="M1109 353L1129.36 336.204L1112.92 315.812L1133.27 299.016L1116.82 278.612L1137.19 261.816L1120.73 241.413L1141.09 224.616L1124.65 204.213L1145 187.415L1128.56 167" stroke="#5a5599" stroke-width="2" stroke-linejoin="round"/>
<path fill-rule="evenodd" clip-rule="evenodd" d="M1291 351C1308.67 351 1323 337.121 1323 320.001C1323 302.879 1308.67 289 1291 289C1273.33 289 1259 302.879 1259 320.001C1259 337.121 1273.33 351 1291 351Z" stroke="#5a5599" stroke-width="2" stroke-linejoin="round"/>
<path d="M931 389C944.165 379.997 933.561 365.328 946.726 356.337C959.893 347.334 970.496 362.003 983.663 353.012C996.829 344.009 986.224 329.34 999.39 320.337C1012.56 311.333 1023.16 326.002 1036.33 317.013C1049.49 308.009 1038.89 293.339 1052.05 284.337C1065.22 275.334 1075.83 290.003 1089 281" stroke="#5a5599" stroke-width="2" stroke-linejoin="round"/>
<path d="M959 -39L1003 0" stroke="#5a5599" stroke-width="2" stroke-linejoin="round"/>
<path d="M931 389C944.165 379.997 933.561 365.328 946.726 356.337C959.893 347.334 970.496 362.003 983.663 353.012C996.829 344.009 986.224 329.34 999.39 320.337C1012.56 311.333 1023.16 326.002 1036.33 317.013C1049.49 308.009 1038.89 293.339 1052.05 284.337C1065.22 275.334 1075.83 290.003 1089 281" stroke="#5a5599" stroke-width="2" stroke-linejoin="round"/>
<path d="M1070 54L1066.69 79.602L1040.01 77.5974L1036.7 103.198L1010.01 101.194L1006.7 126.795L980.018 124.79L976.706 150.391L950.016 148.399L946.703 174L920 171.995" stroke="#5a5599" stroke-width="2" stroke-linejoin="round"/>
<path fill-rule="evenodd" clip-rule="evenodd" d="M825 372L842.919 293L896 352.695L825 372Z" stroke="#5a5599" stroke-width="2" stroke-linejoin="round"/>
<path fill-rule="evenodd" clip-rule="evenodd" d="M619.227 15L567 28.1469L580.773 78L633 64.8531L619.227 15Z" stroke="#5a5599" stroke-width="2" stroke-linejoin="round"/>
<path fill-rule="evenodd" clip-rule="evenodd" d="M736.001 125C749.807 125 761 114.255 761 101C761 87.7454 749.807 77 736.001 77C722.193 77 711 87.7454 711 101C711 114.255 722.193 125 736.001 125Z" stroke="#5a5599" stroke-width="2" stroke-linejoin="round"/>
<path d="M525.621 131C535.44 145.086 531.432 164.418 516.729 173.837C502.025 183.256 481.832 179.418 472 165.332" stroke="#5a5599" stroke-width="2" stroke-linejoin="round"/>
<path d="M674 55L715 13" stroke="#5a5599" stroke-width="2" stroke-linejoin="round"/>
<path d="M421 58L440 41" stroke="#5a5599" stroke-width="2" stroke-linejoin="round"/>
<path d="M808.032 58C815.191 71.9936 798.684 79.9677 805.843 93.9731C813.001 107.967 829.521 99.9938 836.68 114C843.838 127.994 827.332 135.967 834.489 149.974C841.648 163.967 858.169 155.994 865.326 170C872.498 184.006 855.978 191.979 863.15 205.973C870.321 219.966 886.828 211.993 894 226" stroke="#5a5599" stroke-width="2" stroke-linejoin="round"/>
<path d="M555 353L575.364 336.204L558.918 315.812L579.269 299.016L562.825 278.612L583.189 261.816L566.73 241.413L587.094 224.616L570.649 204.213L591 187.415L574.554 167" stroke="#5a5599" stroke-width="2" stroke-linejoin="round"/>
<path fill-rule="evenodd" clip-rule="evenodd" d="M723 219.305L643 195L670.396 270L723 219.305Z" stroke="#5a5599" stroke-width="2" stroke-linejoin="round"/>
<path d="M965 275.967L907 275L940.149 320" stroke="#5a5599" stroke-width="2" stroke-linejoin="round"/>
<path fill-rule="evenodd" clip-rule="evenodd" d="M870.617 21L861 71.6919L913.381 81L923 30.3081L870.617 21Z" stroke="#5a5599" stroke-width="2" stroke-linejoin="round"/>
<path fill-rule="evenodd" clip-rule="evenodd" d="M737 351C754.673 351 769 337.121 769 320.001C769 302.879 754.673 289 737 289C719.327 289 705 302.879 705 320.001C705 337.121 719.327 351 737 351Z" stroke="#5a5599" stroke-width="2" stroke-linejoin="round"/>
<path d="M423 221L470 256" stroke="#5a5599" stroke-width="2" stroke-linejoin="round"/>
<path d="M405 -39L449 0" stroke="#5a5599" stroke-width="2" stroke-linejoin="round"/>
<path d="M773 163L793.504 177.024L777.742 195.987L798.247 210.024L782.496 228.987L803 243.024L787.238 262" stroke="#5a5599" stroke-width="2" stroke-linejoin="round"/>
<path d="M378 389C391.165 379.997 380.561 365.328 393.726 356.337C406.892 347.334 417.496 362.003 430.662 353.012C443.829 344.009 433.224 329.34 446.39 320.337C459.555 311.333 470.16 326.002 483.325 317.013C496.491 308.009 485.886 293.339 499.052 284.337C512.218 275.334 522.822 290.003 536 281" stroke="#5a5599" stroke-width="2" stroke-linejoin="round"/>
<path d="M516 54L512.687 79.602L486.01 77.5974L482.699 103.198L456.007 101.194L452.696 126.795L426.019 124.79L422.706 150.391L396.016 148.399L392.703 174L366 171.995" stroke="#5a5599" stroke-width="2" stroke-linejoin="round"/>
<path d="M778.595 -57C774.266 -44.2451 791.621 -38.6482 787.304 -25.9063C782.975 -13.1514 765.621 -18.7614 761.305 -6.00649C756.975 6.74838 774.33 12.3453 770.014 25.1002C765.697 37.8551 748.329 32.2451 744 45" stroke="#5a5599" stroke-width="2" stroke-linejoin="round"/>
<path d="M603 132.071L654 132.929" stroke="#5a5599" stroke-width="2" stroke-linejoin="round"/>
<path d="M628.051 157L628.949 107" stroke="#5a5599" stroke-width="2" stroke-linejoin="round"/>
<path fill-rule="evenodd" clip-rule="evenodd" d="M900.5 131C904.089 131 907 128.314 907 125C907 121.686 904.089 119 900.5 119C896.911 119 894 121.686 894 125C894 128.314 896.911 131 900.5 131Z" stroke="#5a5599" stroke-width="2" stroke-linejoin="round"/>
<path fill-rule="evenodd" clip-rule="evenodd" d="M842.5 254C846.089 254 849 251.314 849 248C849 244.686 846.089 242 842.5 242C838.911 242 836 244.686 836 248C836 251.314 838.911 254 842.5 254Z" stroke="#5a5599" stroke-width="2" stroke-linejoin="round"/>
<path fill-rule="evenodd" clip-rule="evenodd" d="M625.501 276C629.09 276 632 273.314 632 270C632 266.686 629.09 264 625.501 264C621.91 264 619 266.686 619 270C619 273.314 621.91 276 625.501 276Z" stroke="#5a5599" stroke-width="2" stroke-linejoin="round"/>
<path fill-rule="evenodd" clip-rule="evenodd" d="M695.5 169C699.091 169 702 166.314 702 163C702 159.686 699.091 157 695.5 157C691.911 157 689 159.686 689 163C689 166.314 691.911 169 695.5 169Z" stroke="#5a5599" stroke-width="2" stroke-linejoin="round"/>
<path fill-rule="evenodd" clip-rule="evenodd" d="M516.5 226C520.089 226 523 223.314 523 220C523 216.686 520.089 214 516.5 214C512.911 214 510 216.686 510 220C510 223.314 512.911 226 516.5 226Z" stroke="#5a5599" stroke-width="2" stroke-linejoin="round"/>
<path fill-rule="evenodd" clip-rule="evenodd" d="M494.5 17C498.089 17 501 14.314 501 11C501 7.68596 498.089 5 494.5 5C490.911 5 488 7.68596 488 11C488 14.314 490.911 17 494.5 17Z" stroke="#5a5599" stroke-width="2" stroke-linejoin="round"/>
<path d="M411 275.967L353 275L386.149 320" stroke="#5a5599" stroke-width="2" stroke-linejoin="round"/>
<path d="M931 389C944.165 379.997 933.561 365.328 946.726 356.337C959.893 347.334 970.496 362.003 983.663 353.012C996.829 344.009 986.224 329.34 999.39 320.337C1012.56 311.333 1023.16 326.002 1036.33 317.013C1049.49 308.009 1038.89 293.339 1052.05 284.337C1065.22 275.334 1075.83 290.003 1089 281" stroke="#5a5599" stroke-width="2" stroke-linejoin="round"/>
<path fill-rule="evenodd" clip-rule="evenodd" d="M825 372L842.919 293L896 352.695L825 372Z" stroke="#5a5599" stroke-width="2" stroke-linejoin="round"/>
<path d="M555 353L575.364 336.204L558.918 315.812L579.269 299.016L562.825 278.612L583.189 261.816L566.73 241.413L587.094 224.616L570.649 204.213L591 187.415L574.554 167" stroke="#5a5599" stroke-width="2" stroke-linejoin="round"/>
<path fill-rule="evenodd" clip-rule="evenodd" d="M737 351C754.673 351 769 337.121 769 320.001C769 302.879 754.673 289 737 289C719.327 289 705 302.879 705 320.001C705 337.121 719.327 351 737 351Z" stroke="#5a5599" stroke-width="2" stroke-linejoin="round"/>
<path d="M378 389C391.165 379.997 380.561 365.328 393.726 356.337C406.892 347.334 417.496 362.003 430.662 353.012C443.829 344.009 433.224 329.34 446.39 320.337C459.555 311.333 470.16 326.002 483.325 317.013C496.491 308.009 485.886 293.339 499.052 284.337C512.218 275.334 522.822 290.003 536 281" stroke="#5a5599" stroke-width="2" stroke-linejoin="round"/>
<path d="M405 -39L449 0" stroke="#5a5599" stroke-width="2" stroke-linejoin="round"/>
<path d="M378 389C391.165 379.997 380.561 365.328 393.726 356.337C406.892 347.334 417.496 362.003 430.662 353.012C443.829 344.009 433.224 329.34 446.39 320.337C459.555 311.333 470.16 326.002 483.325 317.013C496.491 308.009 485.886 293.339 499.052 284.337C512.218 275.334 522.822 290.003 536 281" stroke="#5a5599" stroke-width="2" stroke-linejoin="round"/>
<path d="M516 54L512.687 79.602L486.01 77.5974L482.699 103.198L456.007 101.194L452.696 126.795L426.019 124.79L422.706 150.391L396.016 148.399L392.703 174L366 171.995" stroke="#5a5599" stroke-width="2" stroke-linejoin="round"/>
<path fill-rule="evenodd" clip-rule="evenodd" d="M272 372L289.919 293L343 352.695L272 372Z" stroke="#5a5599" stroke-width="2" stroke-linejoin="round"/>
<path fill-rule="evenodd" clip-rule="evenodd" d="M65.2266 15L13 28.1478L26.7734 78L79 64.8522L65.2266 15Z" stroke="#5a5599" stroke-width="2" stroke-linejoin="round"/>
<path fill-rule="evenodd" clip-rule="evenodd" d="M182.001 125C195.807 125 207 114.255 207 101C207 87.7454 195.807 77 182.001 77C168.193 77 157 87.7454 157 101C157 114.255 168.193 125 182.001 125Z" stroke="#5a5599" stroke-width="2" stroke-linejoin="round"/>
<path d="M120 55L161 13" stroke="#5a5599" stroke-width="2" stroke-linejoin="round"/>
<path d="M254.033 58C261.192 71.9936 244.685 79.9677 251.842 93.9731C259.001 107.967 275.522 99.9938 282.679 114C289.838 127.994 273.331 135.967 280.49 149.974C287.649 163.967 304.168 155.994 311.327 170C318.498 184.006 301.978 191.979 309.15 205.973C316.321 219.966 332.828 211.993 340 226" stroke="#5a5599" stroke-width="2" stroke-linejoin="round"/>
<path d="M1 353L21.364 336.204L4.91939 315.812L25.2691 299.016L8.82454 278.612L29.1885 261.816L12.7297 241.413L33.0937 224.616L16.6491 204.213L37 187.415L20.5542 167" stroke="#5a5599" stroke-width="2" stroke-linejoin="round"/>
<path fill-rule="evenodd" clip-rule="evenodd" d="M170 219.305L90 195L117.396 270L170 219.305Z" stroke="#5a5599" stroke-width="2" stroke-linejoin="round"/>
<path d="M411 275.967L353 275L386.149 320" stroke="#5a5599" stroke-width="2" stroke-linejoin="round"/>
<path fill-rule="evenodd" clip-rule="evenodd" d="M316.618 22L307 72.6919L359.382 82L369 31.3069L316.618 22Z" stroke="#5a5599" stroke-width="2" stroke-linejoin="round"/>
<path fill-rule="evenodd" clip-rule="evenodd" d="M183 351C200.673 351 215 337.121 215 320.001C215 302.879 200.673 289 183 289C165.327 289 151 302.879 151 320.001C151 337.121 165.327 351 183 351Z" stroke="#5a5599" stroke-width="2" stroke-linejoin="round"/>
<path d="M219 163L239.504 177.024L223.742 195.987L244.247 210.024L228.496 228.987L249 243.024L233.238 262" stroke="#5a5599" stroke-width="2" stroke-linejoin="round"/>
<path d="M224.595 -57C220.266 -44.2451 237.621 -38.6482 233.304 -25.9063C228.975 -13.1514 211.621 -18.7614 207.305 -6.00649C202.975 6.74838 220.33 12.3453 216.014 25.1002C211.697 37.8551 194.329 32.2451 190 45" stroke="#5a5599" stroke-width="2" stroke-linejoin="round"/>
<path d="M50 132.071L101 132.929" stroke="#5a5599" stroke-width="2" stroke-linejoin="round"/>
<path d="M75.051 157L75.949 107" stroke="#5a5599" stroke-width="2" stroke-linejoin="round"/>
<path fill-rule="evenodd" clip-rule="evenodd" d="M346.5 131C350.089 131 353 128.314 353 125C353 121.686 350.089 119 346.5 119C342.911 119 340 121.686 340 125C340 128.314 342.911 131 346.5 131Z" stroke="#5a5599" stroke-width="2" stroke-linejoin="round"/>
<path fill-rule="evenodd" clip-rule="evenodd" d="M288.5 254C292.089 254 295 251.314 295 248C295 244.686 292.089 242 288.5 242C284.911 242 282 244.686 282 248C282 251.314 284.911 254 288.5 254Z" stroke="#5a5599" stroke-width="2" stroke-linejoin="round"/>
<path fill-rule="evenodd" clip-rule="evenodd" d="M72.5 276C76.0895 276 79 273.314 79 270C79 266.686 76.0895 264 72.5 264C68.9093 264 66 266.686 66 270C66 273.314 68.9093 276 72.5 276Z" stroke="#5a5599" stroke-width="2" stroke-linejoin="round"/>
<path fill-rule="evenodd" clip-rule="evenodd" d="M141.499 169C145.09 169 148 166.314 148 163C148 159.686 145.09 157 141.499 157C137.91 157 135 159.686 135 163C135 166.314 137.91 169 141.499 169Z" stroke="#5a5599" stroke-width="2" stroke-linejoin="round"/>
<path d="M378 389C391.165 379.997 380.561 365.328 393.726 356.337C406.892 347.334 417.497 362.003 430.662 353.012C443.828 344.009 433.223 329.34 446.389 320.337C459.554 311.333 470.159 326.002 483.324 317.013C496.49 308.009 485.886 293.339 499.051 284.337C512.217 275.334 522.821 290.003 536 281" stroke="#5a5599" stroke-width="2" stroke-linejoin="round"/>
<path fill-rule="evenodd" clip-rule="evenodd" d="M272 372L289.919 293L343 352.695L272 372Z" stroke="#5a5599" stroke-width="2" stroke-linejoin="round"/>
<path d="M1 353L21.364 336.204L4.91939 315.812L25.2691 299.016L8.82454 278.612L29.1885 261.816L12.7297 241.413L33.0937 224.616L16.6491 204.213L37 187.415L20.5542 167" stroke="#5a5599" stroke-width="2" stroke-linejoin="round"/>
<path fill-rule="evenodd" clip-rule="evenodd" d="M183 351C200.673 351 215 337.121 215 320.001C215 302.879 200.673 289 183 289C165.327 289 151 302.879 151 320.001C151 337.121 165.327 351 183 351Z" stroke="#5a5599" stroke-width="2" stroke-linejoin="round"/>
</svg>
