<svg width="114" height="10" viewBox="0 0 114 10" fill="none" xmlns="http://www.w3.org/2000/svg">
<path d="M99.7517 10C95.7444 10 93.6851 7.74003 91.8762 5.74594C90.123 3.8257 88.6203 2.17134 85.5035 2.17134C82.3867 2.17134 80.87 3.8257 79.1307 5.74594C77.3219 7.74003 75.2625 10 71.2552 10C67.2479 10 65.1886 7.74003 63.3797 5.74594C61.6265 3.8257 60.1238 2.17134 57.007 2.17134C53.8902 2.17134 52.3874 3.8257 50.6342 5.74594C48.8253 7.74003 46.766 10 42.7587 10C38.7514 10 36.6921 7.74003 34.8832 5.74594C33.13 3.8257 31.6272 2.17134 28.5104 2.17134C25.3936 2.17134 23.8909 3.8257 22.1377 5.74594C20.3288 7.74003 18.2695 10 14.2622 10C10.2549 10 8.19553 7.74003 6.38667 5.74594C4.63347 3.84047 3.11681 2.17134 0 2.17134V0C4.00732 0 6.06664 2.25997 7.8755 4.25406C9.62871 6.1743 11.1315 7.82866 14.2483 7.82866C17.3651 7.82866 18.8678 6.1743 20.621 4.25406C22.4438 2.25997 24.4892 0 28.4965 0C32.5038 0 34.5632 2.25997 36.372 4.25406C38.1113 6.1743 39.628 7.82866 42.7448 7.82866C45.8616 7.82866 47.3782 6.1743 49.1175 4.25406C50.9403 2.25997 52.9857 0 56.993 0C61.0004 0 63.0597 2.25997 64.8685 4.25406C66.6217 6.1743 68.1245 7.82866 71.2413 7.82866C74.3581 7.82866 75.8748 6.1743 77.6141 4.25406C79.4368 2.25997 81.4962 0 85.5035 0C89.5108 0 91.5701 2.25997 93.379 4.25406C95.1322 6.1743 96.6349 7.82866 99.7517 7.82866C102.869 7.82866 104.371 6.1743 106.124 4.25406C107.933 2.25997 109.993 0 114 0V2.17134C110.883 2.17134 109.38 3.8257 107.627 5.74594C105.818 7.74003 103.759 10 99.7517 10Z" fill="white"/>
</svg>
